<svg xmlns="http://www.w3.org/2000/svg" viewBox="0 0 214 62" width="214" height="62">
  <!-- EXTOL wordmark — Outfit 500, outlined, fill #2a1a14 -->
  <g transform="translate(0.00,48.00) scale(0.048000,-0.048000)">
    <path d="M76 0V700H191V0ZM155 0V105H547V0ZM155 307V408H513V307ZM155 595V700H542V595Z" fill="#2a1a14"/>
  </g>
  <g transform="translate(42.32,48.00) scale(0.048000,-0.048000)">
    <path d="M540 0 334 312H313L36 700H172L379 406H400L674 0ZM24 0 290 374 369 307 153 0ZM408 335 329 402 533 700H662Z" fill="#2a1a14"/>
  </g>
  <g transform="translate(89.82,48.00) scale(0.048000,-0.048000)">
    <path d="M252 0V680H367V0ZM24 595V700H595V595Z" fill="#2a1a14"/>
  </g>
  <g transform="translate(133.54,48.00) scale(0.048000,-0.048000)">
    <path d="M398 -10Q323 -10 258.0 18.0Q193 46 144.0 95.5Q95 145 67.5 210.5Q40 276 40 351Q40 426 67.5 491.0Q95 556 143.5 605.5Q192 655 256.5 682.5Q321 710 396 710Q471 710 535.5 682.5Q600 655 649.0 605.5Q698 556 725.5 490.5Q753 425 753 350Q753 275 725.5 209.5Q698 144 649.5 95.0Q601 46 536.5 18.0Q472 -10 398 -10ZM396 100Q467 100 520.5 132.0Q574 164 604.5 220.5Q635 277 635 351Q635 406 617.5 451.5Q600 497 568.0 530.5Q536 564 492.5 582.0Q449 600 396 600Q326 600 272.5 568.5Q219 537 188.5 481.0Q158 425 158 351Q158 296 175.5 249.5Q193 203 224.5 170.0Q256 137 300.0 118.5Q344 100 396 100Z" fill="#2a1a14"/>
  </g>
  <g transform="translate(185.65,48.00) scale(0.048000,-0.048000)">
    <path d="M76 0V700H191V0ZM155 0V105H521V0Z" fill="#2a1a14"/>
  </g>
</svg>