<svg xmlns="http://www.w3.org/2000/svg" viewBox="0 0 214 62" width="214" height="62">
  <!-- EXTOL wordmark — Outfit 400, outlined, fill #2a1a14 -->
  <g transform="translate(0.00,48.00) scale(0.048000,-0.048000)">
    <path d="M82 0V694H176V0ZM146 0V86H544V0ZM146 314V396H511V314ZM146 608V694H539V608Z" fill="#2a1a14"/>
  </g>
  <g transform="translate(42.32,48.00) scale(0.048000,-0.048000)">
    <path d="M551 0 333 318H316L42 694H154L370 395H387L661 0ZM30 0 299 369 363 313 136 0ZM393 335 330 391 544 694H650Z" fill="#2a1a14"/>
  </g>
  <g transform="translate(89.49,48.00) scale(0.048000,-0.048000)">
    <path d="M266 0V674H360V0ZM30 608V694H595V608Z" fill="#2a1a14"/>
  </g>
  <g transform="translate(133.49,48.00) scale(0.048000,-0.048000)">
    <path d="M398 -10Q324 -10 260.0 17.5Q196 45 148.0 94.5Q100 144 73.5 209.0Q47 274 47 348Q47 423 73.5 487.5Q100 552 147.5 601.0Q195 650 258.5 677.0Q322 704 396 704Q470 704 533.5 677.0Q597 650 645.0 601.0Q693 552 720.0 487.0Q747 422 747 347Q747 273 720.0 208.0Q693 143 645.5 94.0Q598 45 534.5 17.5Q471 -10 398 -10ZM396 80Q471 80 527.5 114.5Q584 149 617.0 209.5Q650 270 650 348Q650 406 631.0 454.5Q612 503 578.0 539.0Q544 575 498.0 594.5Q452 614 396 614Q322 614 265.5 580.0Q209 546 176.5 486.0Q144 426 144 348Q144 290 162.5 240.5Q181 191 214.5 155.5Q248 120 294.5 100.0Q341 80 396 80Z" fill="#2a1a14"/>
  </g>
  <g transform="translate(185.60,48.00) scale(0.048000,-0.048000)">
    <path d="M82 0V694H176V0ZM146 0V86H518V0Z" fill="#2a1a14"/>
  </g>
</svg>