<svg xmlns="http://www.w3.org/2000/svg" viewBox="0 0 214 62" width="214" height="62">
  <!-- EXTOL wordmark — Outfit ExtraLight 200, outlined, bark-900 (#2a1a14) -->
  <g transform="translate(0.00,48.00) scale(0.048000,-0.048000)">
    <path d="M93 0V682H146V0ZM127 0V48H537V0ZM127 327V373H506V327ZM127 634V682H532V634Z" fill="#2a1a14"/>
  </g>
  <g transform="translate(42.27,48.00) scale(0.048000,-0.048000)">
    <path d="M572 0 332 329H323L54 682H117L351 374H360L635 0ZM43 0 316 358 350 325 103 0ZM364 334 332 368 565 682H625Z" fill="#2a1a14"/>
  </g>
  <g transform="translate(88.82,48.00) scale(0.048000,-0.048000)">
    <path d="M293 0V663H345V0ZM43 634V682H595V634Z" fill="#2a1a14"/>
  </g>
  <g transform="translate(133.44,48.00) scale(0.048000,-0.048000)">
    <path d="M398 -10Q326 -10 264.5 17.0Q203 44 157.0 92.5Q111 141 85.5 205.0Q60 269 60 342Q60 416 85.0 479.5Q110 543 156.0 591.0Q202 639 263.0 665.5Q324 692 396 692Q468 692 529.5 665.5Q591 639 636.5 591.0Q682 543 708.0 479.0Q734 415 734 341Q734 268 708.5 204.0Q683 140 637.0 92.0Q591 44 530.5 17.0Q470 -10 398 -10ZM396 41Q478 41 541.5 80.5Q605 120 642.0 188.0Q679 256 679 342Q679 406 657.5 460.5Q636 515 598.0 555.5Q560 596 508.5 618.5Q457 641 396 641Q315 641 251.5 602.0Q188 563 151.5 495.5Q115 428 115 342Q115 278 136.0 223.0Q157 168 195.0 127.0Q233 86 284.5 63.5Q336 41 396 41Z" fill="#2a1a14"/>
  </g>
  <g transform="translate(185.50,48.00) scale(0.048000,-0.048000)">
    <path d="M93 0V682H146V0ZM127 0V48H512V0Z" fill="#2a1a14"/>
  </g>
</svg>